<svg width="24" height="24" viewBox="0 0 24 24" fill="none" xmlns="http://www.w3.org/2000/svg">
<path d="M22.276 9.68063C21.7913 7.40016 20.506 5.32453 18.6563 3.83625C16.7648 2.3228 14.4141 1.4988 11.9916 1.5C9.13599 1.5 6.4688 2.60016 4.47474 4.59797C2.54771 6.5311 1.49161 9.08344 1.50005 11.783C1.50012 13.7622 2.08117 15.6978 3.17114 17.3498L3.37505 17.6334L2.25005 22.5L7.6313 21.1613C7.6313 21.1613 7.73911 21.1973 7.8188 21.2278C7.89849 21.2583 8.58427 21.5213 9.31177 21.7247C9.91646 21.8934 11.1746 22.1466 12.1604 22.1466C14.9565 22.1466 17.5674 21.0638 19.5118 19.0969C21.4388 17.1455 22.5 14.5509 22.5 11.7886C22.5002 11.08 22.4251 10.3734 22.276 9.68063Z" fill="#21272A"/>
</svg>
