<svg width="24" height="24" viewBox="0 0 24 24" fill="none" xmlns="http://www.w3.org/2000/svg">
<path d="M12 2.25C6.62391 2.25 2.25 6.62391 2.25 12C2.25 17.3761 6.62391 21.75 12 21.75C17.3761 21.75 21.75 17.3761 21.75 12C21.75 6.62391 17.3761 2.25 12 2.25ZM15.5011 14.1009C15.1027 14.5866 13.6406 15.9047 12 17.078C10.3594 15.9061 8.89734 14.5866 8.49891 14.1009C7.56141 12.9586 7.11234 11.7853 7.12547 10.515C7.14 9.05906 8.30766 7.87453 9.72844 7.87453C10.7597 7.87453 11.4769 8.45625 11.8936 8.94141L12 9.07031L12.1064 8.94141C12.5156 8.45109 13.2384 7.875 14.2716 7.875C15.6923 7.875 16.86 9.05953 16.8745 10.5155C16.8877 11.7853 16.4381 12.9586 15.5011 14.1009Z" fill="#21272A"/>
</svg>
